<svg width="29" height="29" viewBox="0 0 29 29" fill="none" xmlns="http://www.w3.org/2000/svg">
<path d="M7.25 9.6665C7.25 7.74368 8.01384 5.89962 9.37348 4.53998C10.7331 3.18034 12.5772 2.4165 14.5 2.4165C16.4228 2.4165 18.2669 3.18034 19.6265 4.53998C20.9862 5.89962 21.75 7.74368 21.75 9.6665C21.75 18.1248 25.375 20.5415 25.375 20.5415H3.625C3.625 20.5415 7.25 18.1248 7.25 9.6665Z" stroke="black" stroke-width="2" stroke-linecap="round" stroke-linejoin="round"/>
<path d="M12.4458 25.375C12.6481 25.7429 12.9454 26.0497 13.3067 26.2634C13.6681 26.477 14.0802 26.5898 14.5 26.5898C14.9198 26.5898 15.3319 26.477 15.6932 26.2634C16.0546 26.0497 16.3519 25.7429 16.5541 25.375" stroke="black" stroke-width="2" stroke-linecap="round" stroke-linejoin="round"/>
</svg>
