<svg width="23" height="20" viewBox="0 0 23 20" fill="none" xmlns="http://www.w3.org/2000/svg">
<path d="M21.6925 9.41474C21.6965 10.7227 21.342 12.013 20.6579 13.1805C19.8468 14.5796 18.5999 15.7563 17.0568 16.579C15.5137 17.4016 13.7354 17.8376 11.9211 17.8382C10.4038 17.8416 8.90697 17.5361 7.55263 16.9463L1 18.8292L3.18421 13.1805C2.50013 12.013 2.14563 10.7227 2.14958 9.41474C2.15029 7.8507 2.65611 6.31772 3.61038 4.9875C4.56466 3.65728 5.92971 2.58236 7.55263 1.88314C8.90697 1.29343 10.4038 0.987829 11.9211 0.991239H12.4958C14.892 1.1052 17.1552 1.97705 18.8521 3.43986C20.549 4.90267 21.5603 6.85365 21.6925 8.91924V9.41474Z" stroke="black" stroke-width="2" stroke-linecap="round" stroke-linejoin="round"/>
</svg>
