<svg width="22" height="22" viewBox="0 0 22 22" fill="none" xmlns="http://www.w3.org/2000/svg">
<g clip-path="url(#clip0_66_2023)">
<path d="M20.1662 10.0835V11.0002C20.157 12.8503 19.5881 14.6544 18.5343 16.1751C17.4806 17.6959 15.9913 18.8621 14.2623 19.5207C12.5333 20.1792 10.6455 20.2991 8.84711 19.8646C7.04869 19.4302 5.42384 18.4617 4.18615 17.0864C2.94847 15.7112 2.15589 13.9937 1.91261 12.1596C1.66933 10.3255 1.98674 8.46075 2.82311 6.81043C3.65948 5.16012 4.97566 3.80151 6.59862 2.91322C8.22158 2.02494 10.0754 1.64855 11.9162 1.83354" stroke="black" stroke-width="2" stroke-linecap="round" stroke-linejoin="round"/>
<path d="M7.33301 12.8335C7.33301 12.8335 8.70801 14.6668 10.9997 14.6668C13.2913 14.6668 14.6663 12.8335 14.6663 12.8335" stroke="black" stroke-width="2" stroke-linecap="round" stroke-linejoin="round"/>
<path d="M8.25 8.25H8.25875" stroke="black" stroke-width="2" stroke-linecap="round" stroke-linejoin="round"/>
<path d="M13.75 8.25H13.7588" stroke="black" stroke-width="2" stroke-linecap="round" stroke-linejoin="round"/>
<path d="M14.667 4.5835H20.167" stroke="black" stroke-width="2" stroke-linecap="round" stroke-linejoin="round"/>
<path d="M17.417 1.8335V7.3335" stroke="black" stroke-width="2" stroke-linecap="round" stroke-linejoin="round"/>
</g>
<defs>
<clipPath id="clip0_66_2023">
<rect width="22" height="22" fill="white"/>
</clipPath>
</defs>
</svg>
