<svg width="26" height="26" viewBox="0 0 26 26" fill="none" xmlns="http://www.w3.org/2000/svg">
<path d="M13.2383 2.1665H12.7617C12.187 2.1665 11.6359 2.39478 11.2296 2.80111C10.8233 3.20743 10.595 3.75853 10.595 4.33317V4.52817C10.5946 4.90812 10.4943 5.28129 10.3042 5.61024C10.114 5.9392 9.84072 6.21236 9.51167 6.40234L9.04584 6.67317C8.71646 6.86334 8.34283 6.96345 7.9625 6.96345C7.58217 6.96345 7.20854 6.86334 6.87917 6.67317L6.71667 6.5865C6.21949 6.29971 5.62883 6.2219 5.07434 6.37017C4.51985 6.51844 4.04685 6.88067 3.75917 7.37734L3.52084 7.789C3.23404 8.28618 3.15623 8.87685 3.3045 9.43134C3.45277 9.98582 3.815 10.4588 4.31167 10.7465L4.47417 10.8548C4.80163 11.0439 5.07392 11.3154 5.26397 11.6422C5.45402 11.9691 5.55522 12.3401 5.5575 12.7182V13.2707C5.55902 13.6525 5.45962 14.0279 5.26938 14.3589C5.07914 14.6899 4.80481 14.9648 4.47417 15.1557L4.31167 15.2532C3.815 15.5409 3.45277 16.0139 3.3045 16.5683C3.15623 17.1228 3.23404 17.7135 3.52084 18.2107L3.75917 18.6223C4.04685 19.119 4.51985 19.4812 5.07434 19.6295C5.62883 19.7778 6.21949 19.7 6.71667 19.4132L6.87917 19.3265C7.20854 19.1363 7.58217 19.0362 7.9625 19.0362C8.34283 19.0362 8.71646 19.1363 9.04584 19.3265L9.51167 19.5973C9.84072 19.7873 10.114 20.0605 10.3042 20.3894C10.4943 20.7184 10.5946 21.0916 10.595 21.4715V21.6665C10.595 22.2411 10.8233 22.7922 11.2296 23.1986C11.6359 23.6049 12.187 23.8332 12.7617 23.8332H13.2383C13.813 23.8332 14.3641 23.6049 14.7704 23.1986C15.1767 22.7922 15.405 22.2411 15.405 21.6665V21.4715C15.4054 21.0916 15.5057 20.7184 15.6958 20.3894C15.886 20.0605 16.1593 19.7873 16.4883 19.5973L16.9542 19.3265C17.2835 19.1363 17.6572 19.0362 18.0375 19.0362C18.4178 19.0362 18.7915 19.1363 19.1208 19.3265L19.2833 19.4132C19.7805 19.7 20.3712 19.7778 20.9257 19.6295C21.4802 19.4812 21.9532 19.119 22.2408 18.6223L22.4792 18.1998C22.766 17.7027 22.8438 17.112 22.6955 16.5575C22.5472 16.003 22.185 15.53 21.6883 15.2423L21.5258 15.1557C21.1952 14.9648 20.9209 14.6899 20.7306 14.3589C20.5404 14.0279 20.441 13.6525 20.4425 13.2707V12.729C20.441 12.3472 20.5404 11.9718 20.7306 11.6408C20.9209 11.3098 21.1952 11.0349 21.5258 10.844L21.6883 10.7465C22.185 10.4588 22.5472 9.98582 22.6955 9.43134C22.8438 8.87685 22.766 8.28618 22.4792 7.789L22.2408 7.37734C21.9532 6.88067 21.4802 6.51844 20.9257 6.37017C20.3712 6.2219 19.7805 6.29971 19.2833 6.5865L19.1208 6.67317C18.7915 6.86334 18.4178 6.96345 18.0375 6.96345C17.6572 6.96345 17.2835 6.86334 16.9542 6.67317L16.4883 6.40234C16.1593 6.21236 15.886 5.9392 15.6958 5.61024C15.5057 5.28129 15.4054 4.90812 15.405 4.52817V4.33317C15.405 3.75853 15.1767 3.20743 14.7704 2.80111C14.3641 2.39478 13.813 2.1665 13.2383 2.1665Z" stroke="black" stroke-width="2" stroke-linecap="round" stroke-linejoin="round"/>
<path d="M13 16.25C14.7949 16.25 16.25 14.7949 16.25 13C16.25 11.2051 14.7949 9.75 13 9.75C11.2051 9.75 9.75 11.2051 9.75 13C9.75 14.7949 11.2051 16.25 13 16.25Z" stroke="black" stroke-width="2" stroke-linecap="round" stroke-linejoin="round"/>
</svg>
