<svg width="38" height="46" viewBox="0 0 38 46" fill="none" xmlns="http://www.w3.org/2000/svg">
<path d="M18.9998 24.9163C19.8743 24.9163 20.5832 24.0582 20.5832 22.9997C20.5832 21.9411 19.8743 21.083 18.9998 21.083C18.1254 21.083 17.4165 21.9411 17.4165 22.9997C17.4165 24.0582 18.1254 24.9163 18.9998 24.9163Z" stroke="black" stroke-width="2" stroke-linecap="round" stroke-linejoin="round"/>
<path d="M30.0833 24.9163C30.9578 24.9163 31.6667 24.0582 31.6667 22.9997C31.6667 21.9411 30.9578 21.083 30.0833 21.083C29.2089 21.083 28.5 21.9411 28.5 22.9997C28.5 24.0582 29.2089 24.9163 30.0833 24.9163Z" stroke="black" stroke-width="2" stroke-linecap="round" stroke-linejoin="round"/>
<path d="M7.91683 24.9163C8.79128 24.9163 9.50016 24.0582 9.50016 22.9997C9.50016 21.9411 8.79128 21.083 7.91683 21.083C7.04238 21.083 6.3335 21.9411 6.3335 22.9997C6.3335 24.0582 7.04238 24.9163 7.91683 24.9163Z" stroke="black" stroke-width="2" stroke-linecap="round" stroke-linejoin="round"/>
<path d="M8.26066 22C8.71689 22 9.08674 22.4477 9.08674 23C9.08674 23.5523 8.71689 24 8.26066 24C7.80442 24 7.43457 23.5523 7.43457 23C7.43457 22.4477 7.80442 22 8.26066 22Z" stroke="black" stroke-width="2" stroke-linecap="round" stroke-linejoin="round"/>
<path d="M18.9999 22C19.4562 22 19.826 22.4477 19.826 23C19.826 23.5523 19.4562 24 18.9999 24C18.5437 24 18.1738 23.5523 18.1738 23C18.1738 22.4477 18.5437 22 18.9999 22Z" stroke="black" stroke-width="2" stroke-linecap="round" stroke-linejoin="round"/>
<path d="M30.5653 22C31.0216 22 31.3914 22.4477 31.3914 23C31.3914 23.5523 31.0216 24 30.5653 24C30.1091 24 29.7393 23.5523 29.7393 23C29.7393 22.4477 30.1091 22 30.5653 22Z" stroke="black" stroke-width="2" stroke-linecap="round" stroke-linejoin="round"/>
</svg>
